<?xml version="1.0" encoding="iso-8859-1"?>
<!-- Generator: Adobe Illustrator 17.1.0, SVG Export Plug-In . SVG Version: 6.00 Build 0)  -->
<!DOCTYPE svg PUBLIC "-//W3C//DTD SVG 1.1//EN" "http://www.w3.org/Graphics/SVG/1.1/DTD/svg11.dtd">
<svg version="1.1" id="Capa_1" xmlns="http://www.w3.org/2000/svg" xmlns:xlink="http://www.w3.org/1999/xlink" x="0px" y="0px"
	 viewBox="0 0 377.608 377.608" style="enable-background:new 0 0 377.608 377.608;" xml:space="preserve">
<path d="M73.624,150.449H10c-5.523,0-10-4.478-10-10s4.477-10,10-10h69.143c3.435,0,6.629,1.763,8.46,4.669l19.917,31.609
	l30.668-78.283c1.547-3.949,5.431-6.466,9.657-6.347c4.239,0.146,7.924,2.951,9.195,6.998l29.168,92.889l10.575-43.879
	c1.083-4.492,5.102-7.657,9.722-7.657h49.642c5.523,0,10,4.478,10,10s-4.477,10-10,10h-41.765l-17.183,71.298
	c-1.053,4.369-4.891,7.499-9.383,7.651c-0.114,0.004-0.228,0.006-0.342,0.006c-4.354,0-8.226-2.825-9.538-7.004L146.46,122.16
	l-27.537,70.291c-1.376,3.513-4.612,5.952-8.368,6.308c-3.751,0.364-7.393-1.433-9.403-4.624L73.624,150.449z M351.585,55.178
	c-21.487-20.786-49.567-32.234-79.068-32.234c-25.933,0-50.732,8.771-70.759,24.866c-20.026-16.096-44.825-24.866-70.757-24.866
	c-29.504,0-57.585,11.448-79.07,32.234c-12.786,12.37-20.96,27.135-24.294,43.884c-1.078,5.416,2.438,10.682,7.855,11.76
	c5.415,1.073,10.681-2.438,11.76-7.855c2.561-12.862,8.64-23.792,18.586-33.414c17.735-17.158,40.877-26.608,65.164-26.608
	c23.857,0,46.548,9.018,63.892,25.393c3.853,3.638,9.875,3.639,13.729,0c17.344-16.375,40.036-25.393,63.894-25.393
	c24.284,0,47.425,9.45,65.162,26.608c13.639,13.196,20.156,29.078,19.923,48.554c-0.68,56.93-60.458,132.119-116.174,183.503
	c-2.875,2.65-5.573,5.156-8.116,7.518c-15.009,13.937-25.269,23.463-31.554,25.339c-6.287-1.876-16.551-11.407-31.566-25.35
	c-2.539-2.357-5.234-4.86-8.104-7.508c-20.355-18.771-70.681-68.264-98.307-122.307c-2.514-4.917-8.539-6.867-13.456-4.353
	c-4.917,2.514-6.866,8.538-4.352,13.456c29.093,56.912,81.413,108.407,102.556,127.905c2.853,2.631,5.531,5.118,8.055,7.462
	c20.917,19.423,31.417,29.172,43.872,30.809c0.433,0.057,0.868,0.085,1.303,0.085s0.87-0.028,1.302-0.085
	c12.456-1.637,22.952-11.382,43.861-30.798c2.527-2.347,5.209-4.838,8.066-7.472c28.523-26.306,121.662-118.323,122.613-197.966
	C377.899,93.42,369.146,72.168,351.585,55.178z"/>
<g>
</g>
<g>
</g>
<g>
</g>
<g>
</g>
<g>
</g>
<g>
</g>
<g>
</g>
<g>
</g>
<g>
</g>
<g>
</g>
<g>
</g>
<g>
</g>
<g>
</g>
<g>
</g>
<g>
</g>
</svg>
